<svg xmlns="http://www.w3.org/2000/svg" viewBox="0 0 420 160" width="420" height="160">
  <!-- Wheat sprigs -->
  <g transform="translate(34,80)" stroke="#C9A84C" stroke-width="1.2" fill="none">
    <line x1="0" y1="28" x2="0" y2="-28"/>
    <ellipse cx="-7" cy="10" rx="7" ry="3.5" transform="rotate(-35,-7,10)" fill="#C9A84C" stroke="none" opacity="0.85"/>
    <ellipse cx="7" cy="2" rx="7" ry="3.5" transform="rotate(35,7,2)" fill="#C9A84C" stroke="none" opacity="0.85"/>
    <ellipse cx="-6" cy="-8" rx="6" ry="3" transform="rotate(-30,-6,-8)" fill="#C9A84C" stroke="none" opacity="0.7"/>
    <ellipse cx="6" cy="-14" rx="6" ry="3" transform="rotate(30,6,-14)" fill="#C9A84C" stroke="none" opacity="0.7"/>
    <ellipse cx="0" cy="-22" rx="5" ry="2.5" fill="#C9A84C" stroke="none" opacity="0.6"/>
  </g>
  <g transform="translate(386,80)" stroke="#C9A84C" stroke-width="1.2" fill="none">
    <line x1="0" y1="28" x2="0" y2="-28"/>
    <ellipse cx="7" cy="10" rx="7" ry="3.5" transform="rotate(35,7,10)" fill="#C9A84C" stroke="none" opacity="0.85"/>
    <ellipse cx="-7" cy="2" rx="7" ry="3.5" transform="rotate(-35,-7,2)" fill="#C9A84C" stroke="none" opacity="0.85"/>
    <ellipse cx="6" cy="-8" rx="6" ry="3" transform="rotate(30,6,-8)" fill="#C9A84C" stroke="none" opacity="0.7"/>
    <ellipse cx="-6" cy="-14" rx="6" ry="3" transform="rotate(-30,-6,-14)" fill="#C9A84C" stroke="none" opacity="0.7"/>
    <ellipse cx="0" cy="-22" rx="5" ry="2.5" fill="#C9A84C" stroke="none" opacity="0.6"/>
  </g>

  <!-- Rule lines -->
  <line x1="52" y1="80" x2="96" y2="80" stroke="#C9A84C" stroke-width="0.8" opacity="0.5"/>
  <line x1="324" y1="80" x2="368" y2="80" stroke="#C9A84C" stroke-width="0.8" opacity="0.5"/>

  <!-- "The" small italic above -->
  <text x="210" y="50" font-family="'Playfair Display', Georgia, serif" font-size="18" font-style="italic" font-weight="400" fill="#7C9A7E" text-anchor="middle" letter-spacing="3">The</text>

  <!-- "Biscuit Bar" main -->
  <text x="210" y="96" font-family="'Playfair Display', Georgia, serif" font-size="42" font-weight="700" fill="#1A1A1A" text-anchor="middle" letter-spacing="1">Biscuit Bar</text>

  <!-- Gold underline accent -->
  <line x1="100" y1="104" x2="320" y2="104" stroke="#C9A84C" stroke-width="1.5" opacity="0.7"/>

  <!-- Tagline -->
  <text x="210" y="126" font-family="'Lato', Arial, sans-serif" font-size="9" font-weight="400" fill="#7C9A7E" text-anchor="middle" letter-spacing="4">SCRATCH-MADE · LOCALLY SOURCED · FRANKLIN, IN</text>
</svg>
